<svg version="1.1" id="Layer_1" xmlns:x="ns_extend;" xmlns:i="ns_ai;" xmlns:graph="ns_graphs;" xmlns="http://www.w3.org/2000/svg" xmlns:xlink="http://www.w3.org/1999/xlink" x="0px" y="0px" viewBox="0 0 64.7 146.6" style="enable-background:new 0 0 64.7 146.6;" xml:space="preserve">
 <style type="text/css">
  .st0{fill:#FFFFFF;}
	.st1{fill:#C8102E;}
	.st2{fill:#1D428A;}
 </style>
 <metadata>
  <sfw xmlns="ns_sfw;">
   <slices>
   </slices>
   <sliceSourceBounds bottomLeftOrigin="true" height="146.6" width="64.7" x="0.4" y="8.4">
   </sliceSourceBounds>
  </sfw>
 </metadata>
 <g>
  <g>
   <path class="st0" d="M49.5,0H15.2C6.8,0,0,6.8,0,15.2v116.2c0,8.4,6.8,15.2,15.2,15.2h34.3c8.4,0,15.2-6.8,15.2-15.2V15.2
			C64.7,6.8,57.9,0,49.5,0">
   </path>
   <path class="st1" d="M41,26.9v0.5c1,0.6,1.6,1.1,2.6,1.8c2.8,1.8,6.2,4.9,5.8,15.7c0.8,2.4,1.1,7,1.9,8.5c1.5,2.9,2.4,4.8,2.9,7.5
			c0,0,0.4,4.2,1,4.6c2.9,0.7,2.1,0.9,2.5,1.4c0.4,0.6,2.1,0.6,2.1,2.1c0.6,0.8,1,1.6,1.3,2.4V15.3c0-6.4-5.2-11.6-11.6-11.6H38.4
			c1.8,0.6,2.8,1.4,3.4,2.6c1.4,0.1,3.1,3.3,0.5,8.1c1.2,0.8,0.3,1.9-0.6,3.3c-0.2,0.4-0.5,1.2-1.3,1.2c-1,2.1-2.2,4.2-3.1,4.3
			c-0.3,0.3-0.5,1.3-0.1,1.7C38.6,25.3,40.2,26.1,41,26.9">
   </path>
   <path class="st1" d="M61.1,78.9c-1.5,3.8-5.2,6.5-9.6,6.5c-5.7,0-10.3-4.6-10.3-10.3c0-4.9,3.4-9,7.9-10.1c-1.2-3-3.7-7.8-4.5-9.4
			c-0.7-1.6-2.4-11.4-2.8-13.3c-0.1-0.4-4.5,2.5-4.5,2.7c-0.3,0.2-3.3,8.2-3.4,8.6c-0.1,0.3-0.1,1.3-0.1,1.3s1.5,0.2,2.3,2.8
			c0.8,2.6,3.4,12.1,3.4,12.1l-0.7,0.7c3.3,10.9,2.1,15.6,3.6,18.8c1.8,4.5,2.3,3.9,3.9,7.7c1.1,2.8,2.4,13.6,2.8,14.1
			c1.8,2.2,2.7,4,2.7,5.2c0,1.3-1.5,5-0.9,7.2c0.3,1.3,0.5,4.2,1.1,4.7c0,0,0.5,1.1,0.3,1.6c-0.1,0.2-0.2,0.4-0.2,0.6
			c1,3.4,4.1,9.3-1,12.4h0.1c5.5-0.9,9.7-5.6,9.7-11.5L61.1,78.9L61.1,78.9z">
   </path>
   <path class="st2" d="M48.1,129.2c-1.9-1.7-0.6-2.4-0.7-3c-1.2-5.1-5.3-8.1-3.2-9.8c-0.5-1.7-1.6-3.8-1.5-3.8
			c-6.3-3.6-11.6-9.5-12.5-10.3c-1.1-1.2-3-2.4-3.3-3.4C25.4,97.5,18,87,16.3,83.1l-3-0.4c-1.4-5.6-5.9-10.3-6-15.9
			c0-2.1,1-6.7,1.3-7.6c0.4-0.9,2.1-2.4,2.1-2.4v-1.5c-6.6,0.2-4.7-0.5-5.8-3c-0.8-1.8-0.2-2.2,0.1-3.4c0.9-3.6,3.8-9.2,5-11.7
			c0.4-1.3,1.6-4.4,1.6-4.4c4.9-9.9,6.7-9.2,12.5-9.8l0.3-0.4c5.8-0.3,4.9-0.7,5.7-6.3c-0.8,0.4-1.1-1.8-1.1-1.8
			c-0.5-3.2,0.9-2.6,1.5-2.6C30.6,6.7,31.2,5,35,3.6H15.4C9,3.6,3.8,8.8,3.8,15.2v116.2c0,6.4,5.2,11.6,11.6,11.6h34.3
			C45.6,140.9,47.9,136.8,48.1,129.2z">
   </path>
   <path class="st0" d="M21.7,135.7v-21h4.1c2.4,0,3.8,1.3,3.8,4.2v3.1c0,1.9-0.6,2.9-1.4,3.4c0.8,0.6,1.4,1.5,1.4,3.1v3.1
			c0,2.9-1.5,4.2-3.8,4.2L21.7,135.7L21.7,135.7z M24.5,126.5v6.5h1.1c1,0,1.2-0.5,1.2-1.5v-3.6c0-1-0.3-1.4-1.3-1.4H24.5
			L24.5,126.5z M24.5,117.3v7h1c1,0,1.3-0.4,1.3-1.5v-4c0-1-0.3-1.4-1.2-1.4L24.5,117.3L24.5,117.3z M36.2,131.4h-2.5l-0.4,4.3h-2.8
			l2.5-21h4l2.4,21h-2.9L36.2,131.4z M35,117L35,117c-0.3,2.5-0.6,7-0.7,8.4L34,129h2.2l-0.3-3.6C35.6,124,35.2,119.6,35,117
			 M13.4,135.7H11v-21h3.9l3.1,17.2c-0.3-4.1-0.6-9.1-0.6-13.3v-3.9h2.4v21h-3.6l-3.1-16.9c0.2,3.9,0.3,7,0.3,10.2L13.4,135.7
			L13.4,135.7z">
   </path>
  </g>
 </g>
</svg>